{"title":"Grown.Ups.2010.DVDSCR.MP4.FEEL-FREE","uid":5686575,"size":723808837,"categoryP":"video","categoryS":"movies","magnet":"?xt=urn:btih:569b211f9ffc4c88f9b87080a75714bed04838be&amp;dn=Grown.Ups.2010.DVDSCR.MP4.FEEL-FREE&amp;tr=udp%3A%2F%2Ftracker.openbittorrent.com%3A80&amp;tr=udp%3A%2F%2Fopen.demonii.com%3A1337&amp;tr=udp%3A%2F%2Ftracker.coppersurfer.tk%3A6969&amp;tr=udp%3A%2F%2Fexodus.desync.com%3A6969","seeders":1,"leechers":0,"uploader":"hiest","files":9,"time":1278942953,"description":"Genre:Comedy\nLanguage:English\nIMDb:http://www.imdb.com/title/tt1375670/\nSubtitles: ROMANA\nEncoder: Tony2\n..........................................\nGeneral\nComplete name : Grown.Ups.2010.DVDSCR.MP4.FEEL-FREE\nFormat : MPEG-4\nFormat profile : Base Media\nCodec ID : isom\nFile size : 688 MiB\nDuration : 1h 42mn\nOverall bit rate : 938 Kbps\n............................................\nVideo\nID : 1\nFormat : AVC\nFormat/Info : Advanced Video Codec\nFormat profile : &lt;a class=&quot;__cf_email__&quot; href=&quot;/cdn-cgi/l/email-protection&quot; data-cfemail=&quot;d499b5bdba9498e5fae7&quot;&gt;[email&amp;#160;protected]&lt;/a&gt;&lt;script cf-hash='f9e31' type=&quot;text/javascript&quot;&gt;\n/* &lt;![CDATA[ */!function(){try{var t=&quot;currentScript&quot;in document?document.currentScript:function(){for(var t=document.getElementsByTagName(&quot;script&quot;),e=t.length;e--;)if(t[e].getAttribute(&quot;cf-hash&quot;))return t[e]}();if(t&amp;&amp;t.previousSibling){var e,r,n,i,c=t.previousSibling,a=c.getAttribute(&quot;data-cfemail&quot;);if(a){for(e=&quot;&quot;,r=parseInt(a.substr(0,2),16),n=2;a.length-n;n+=2)i=parseInt(a.substr(n,2),16)^r,e+=String.fromCharCode(i);e=document.createTextNode(e),c.parentNode.replaceChild(e,c)}}}catch(u){}}();/* ]]&gt; */&lt;/script&gt;\nFormat settings, CABAC : Yes\nFormat settings, ReFrames : 1 frame\nCodec ID : avc1\nCodec ID/Info : Advanced Video Coding\nDuration : 1h 42mn\nBit rate mode : Variable\nBit rate : 782 Kbps\nWidth : 720 pixels\nHeight : 304 pixels\nDisplay aspect ratio : 2.35:1\nFrame rate mode : Constant\nFrame rate : 29.970 fps\nResolution : 24 bits\nColorimetry : 4:2:0\nScan type : Progressive\nBits/(Pixel*Frame) : 0.119\nStream size : 573 MiB (83%)\n............................................\nAudio\nID : 2\nFormat : AAC\nFormat/Info : Advanced Audio Codec\nFormat version : Version 4\nFormat profile : LC\nFormat settings, SBR : No\nCodec ID : 40\nDuration : 1h 42mn\nBit rate mode : Variable\nBit rate : 152 Kbps\nChannel(s) : 2 channels\nChannel positions : L R\nSampling rate : 44.1 KHz\nResolution : 16 bits\nStream size : 111 MiB (16%)\n............................................\nPlot:\nAfter their high school basketball coach passes away, five good friends and former teammates reunite for a Fourth of July holiday weekend\n...................................................\nScreens: &lt;a href=&quot;\nhttp://postimg.com/image/18000/17699.jpg&quot; rel=&quot;nofollow&quot; target=&quot;_NEW&quot;&gt;\nhttp://postimg.com/image/18000/17699.jpg&lt;/a&gt;\n..........................................................","torrent":{"xt":"urn:btih:569b211f9ffc4c88f9b87080a75714bed04838be","amp;dn":"Grown.Ups.2010.DVDSCR.MP4.FEEL-FREE","amp;tr":["udp%3A%2F%2Ftracker.openbittorrent.com%3A80","udp%3A%2F%2Fopen.demonii.com%3A1337","udp%3A%2F%2Ftracker.coppersurfer.tk%3A6969","udp%3A%2F%2Fexodus.desync.com%3A6969"],"infoHash":"569b211f9ffc4c88f9b87080a75714bed04838be","infoHashBuffer":{"type":"Buffer","data":[86,155,33,31,159,252,76,136,249,184,112,128,167,87,20,190,208,72,56,190]},"announce":[],"urlList":[]}}